<?xml version="1.0" encoding="UTF-8"?>
<!DOCTYPE svg PUBLIC "-//W3C//DTD SVG 1.1//EN" "http://www.w3.org/Graphics/SVG/1.1/DTD/svg11.dtd" [
<!ENTITY ns_flows "http://ns.adobe.com/Flows/1.0/">
	<!ENTITY ns_extend "http://ns.adobe.com/Extensibility/1.0/">
	<!ENTITY ns_ai "http://ns.adobe.com/AdobeIllustrator/10.0/">
	<!ENTITY ns_graphs "http://ns.adobe.com/Graphs/1.0/">
	<!ENTITY ns_vars "http://ns.adobe.com/Variables/1.0/">
	<!ENTITY ns_imrep "http://ns.adobe.com/ImageReplacement/1.0/">
	<!ENTITY ns_sfw "http://ns.adobe.com/SaveForWeb/1.0/">
	<!ENTITY ns_custom "http://ns.adobe.com/GenericCustomNamespace/1.0/">
	<!ENTITY ns_adobe_xpath "http://ns.adobe.com/XPath/1.0/">
]>
<svg enable-background="new 0 0 300 300" viewBox="0 0 300 300" xml:space="preserve" xmlns="http://www.w3.org/2000/svg">

	
		
			<path d="m100.733,100.942c5.818-.755 11.853,1.204 16.411,4.828 4.852,3.93 7.406,10.082 7.998,16.188-.27,6.198-2.797,12.497-7.539,16.625-5.803,5.023-14.377,6.811-21.591,3.988-10.436-3.522-16.887-16.101-13.176-26.57 2.408-7.965 9.657-13.999 17.897-15.059z" fill="none" stroke="#000" stroke-miterlimit="10" stroke-width=".1"></path>
			<path d="m100.733,100.942c5.818-.755 11.853,1.204 16.411,4.828 4.852,3.93 7.406,10.082 7.998,16.188-.27,6.198-2.797,12.497-7.539,16.625-5.803,5.023-14.377,6.811-21.591,3.988-10.436-3.522-16.887-16.101-13.176-26.57 2.408-7.965 9.657-13.999 17.897-15.059z"></path>
			<path d="m238.674,100.951c5.631-.765 11.459,1.065 15.979,4.428 5.16,3.906 7.894,10.285 8.493,16.604-.286,6.196-2.81,12.49-7.558,16.612-5.777,4.991-14.297,6.783-21.484,4.007-10.463-3.479-16.972-16.053-13.285-26.544 2.384-7.97 9.617-14.026 17.855-15.107z" fill="none" stroke="#000" stroke-miterlimit="10" stroke-width=".1"></path>
			<path d="m238.674,100.951c5.631-.765 11.459,1.065 15.979,4.428 5.16,3.906 7.894,10.285 8.493,16.604-.286,6.196-2.81,12.49-7.558,16.612-5.777,4.991-14.297,6.783-21.484,4.007-10.463-3.479-16.972-16.053-13.285-26.544 2.384-7.97 9.617-14.026 17.855-15.107z"></path>
			<path d="m22.937,157.978c33.05-2.06 65.93-6.993 99.083-7.054 4.871.23 10.075,2.04 12.8,6.338 1.768,2.178.883,5.164-.103,7.48-1.863,4.084-6.291,6.418-10.63,6.76-9.079.729-18.146-.485-27.199-1.006-12.956-1.115-25.965-1.439-38.919-2.568-12.588-1.023-25.114-2.627-37.666-4.006 10.08,12.719 20.021,25.549 30.078,38.287 5.942-8.962 13.767-17.4 24.212-20.914 5.979-1.78 12.804-2.668 18.557.329 12.246,5.886 20.776,16.927 29.17,27.213 3.015,3.499 5.278,7.659 8.656,10.827 16.23.367 32.494.061 48.737.141 2.302-4.643 4.656-9.26 6.95-13.905-10.307-13.56-20.809-26.97-31.11-40.53-2.138-3.52-6.8-3.238-10.171-4.84 6.059-2.621 12.823-1.828 19.233-2.631 29.836-1.879 59.492-6.395 89.414-6.855 7.243-.85 16.852.301 19.791,8.152 .125,4.246-2.072,8.768-6.086,10.548-5.506,2.74-11.838,1.929-17.764,1.79-11.986-.869-23.963-1.855-35.967-2.476-17.309-.878-34.521-2.933-51.719-5.012 9.364,11.942 18.578,24.005 27.804,36.056 7.146-10.528 17.638-20.369 30.954-21.295 8.955-1.278 16.739,4.546 23.178,10 9.861,9.047 17.775,19.927 25.89,30.504 9.962.152 19.926.031 29.89.07v6c-30.094.022-60.182.415-90.277.222 18.723,24.23 37.383,48.513 56.049,72.786l-1.684,1.611h-4.961c-19.025-24.793-38.148-49.512-57.163-74.314-28.978.193-57.965.13-86.947.131-15.284.699-30.593.238-45.889.352 18.863,24.053 37.806,48.052 56.554,72.19l-1.55,1.642h-4.964c-17.386-21.998-34.615-44.125-51.945-66.168-2.066-2.497-3.765-5.351-6.213-7.498-20.322-.367-40.675-.045-61.009-.153v-5.8c13.628-.069 27.282.221 40.89-.396 2.424-3.749 4.101-7.924 6.148-11.882-11.801-15.154-23.785-30.17-35.488-45.4-2.42-.614-4.818-1.318-7.173-2.147 5.827-2.601 12.37-1.83 18.559-2.579z" fill="none" stroke="#000" stroke-miterlimit="10" stroke-width=".1"></path>
			<path d="m22.937,157.978c33.05-2.06 65.93-6.993 99.083-7.054 4.871.23 10.075,2.04 12.8,6.338 1.768,2.178.883,5.164-.103,7.48-1.863,4.084-6.291,6.418-10.63,6.76-9.079.729-18.146-.485-27.199-1.006-12.956-1.115-25.965-1.439-38.919-2.568-12.588-1.023-25.114-2.627-37.666-4.006 10.08,12.719 20.021,25.549 30.078,38.287 5.942-8.962 13.767-17.4 24.212-20.914 5.979-1.78 12.804-2.668 18.557.329 12.246,5.886 20.776,16.927 29.17,27.213 3.015,3.499 5.278,7.659 8.656,10.827 16.23.367 32.494.061 48.737.141 2.302-4.643 4.656-9.26 6.95-13.905-10.307-13.56-20.809-26.97-31.11-40.53-2.138-3.52-6.8-3.238-10.171-4.84 6.059-2.621 12.823-1.828 19.233-2.631 29.836-1.879 59.492-6.395 89.414-6.855 7.243-.85 16.852.301 19.791,8.152 .125,4.246-2.072,8.768-6.086,10.548-5.506,2.74-11.838,1.929-17.764,1.79-11.986-.869-23.963-1.855-35.967-2.476-17.309-.878-34.521-2.933-51.719-5.012 9.364,11.942 18.578,24.005 27.804,36.056 7.146-10.528 17.638-20.369 30.954-21.295 8.955-1.278 16.739,4.546 23.178,10 9.861,9.047 17.775,19.927 25.89,30.504 9.962.152 19.926.031 29.89.07v6c-30.094.022-60.182.415-90.277.222 18.723,24.23 37.383,48.513 56.049,72.786l-1.684,1.611h-4.961c-19.025-24.793-38.148-49.512-57.163-74.314-28.978.193-57.965.13-86.947.131-15.284.699-30.593.238-45.889.352 18.863,24.053 37.806,48.052 56.554,72.19l-1.55,1.642h-4.964c-17.386-21.998-34.615-44.125-51.945-66.168-2.066-2.497-3.765-5.351-6.213-7.498-20.322-.367-40.675-.045-61.009-.153v-5.8c13.628-.069 27.282.221 40.89-.396 2.424-3.749 4.101-7.924 6.148-11.882-11.801-15.154-23.785-30.17-35.488-45.4-2.42-.614-4.818-1.318-7.173-2.147 5.827-2.601 12.37-1.83 18.559-2.579z"></path>
			<path d="m198.826,211.246c6.551-5.984 13.378-12.367 22.012-15.057 9.44,5.066 14.928,14.835 20.719,23.454-12.059-.161-24.135.196-36.182-.168-2.594-2.387-4.406-5.461-6.549-8.229z" fill="none" stroke="#fff" stroke-miterlimit="10" stroke-width=".1"></path>
			<path d="m198.826,211.246c6.551-5.984 13.378-12.367 22.012-15.057 9.44,5.066 14.928,14.835 20.719,23.454-12.059-.161-24.135.196-36.182-.168-2.594-2.387-4.406-5.461-6.549-8.229z" fill="#fff"></path>
			<path d="m59.002,213.221c6.604-6.653 13.954-12.92 22.85-16.229 9.045,5.363 14.851,14.469 20.28,23.184-12.416-.063-24.839.145-37.249-.094-2.427-1.827-3.954-4.559-5.881-6.861z" fill="none" stroke="#fff" stroke-miterlimit="10" stroke-width=".1"></path>
			<path d="m59.002,213.221c6.604-6.653 13.954-12.92 22.85-16.229 9.045,5.363 14.851,14.469 20.28,23.184-12.416-.063-24.839.145-37.249-.094-2.427-1.827-3.954-4.559-5.881-6.861z" fill="#fff"></path>
			<path d="m190.658,219.611c1.284-1.172 2.555-2.359 3.818-3.553 .963,1.188 1.928,2.38 2.914,3.555l-6.732-.002z" fill="none" stroke="#fff" stroke-miterlimit="10" stroke-width=".1"></path>
			<path d="m190.658,219.611c1.284-1.172 2.555-2.359 3.818-3.553 .963,1.188 1.928,2.38 2.914,3.555l-6.732-.002z" fill="#fff"></path>
		
	

</svg>
